/* XPM */
static char * pixmap_pause[] = {
/* width height num_colors chars_per_pixel */
"10 16 2 1",
/* colors */
"  c None",
"! c #000000",
/* pixels */
"!!!!  !!!!",
"!!!!  !!!!",
"!!!!  !!!!",
"!!!!  !!!!",
"!!!!  !!!!",
"!!!!  !!!!",
"!!!!  !!!!",
"!!!!  !!!!",
"!!!!  !!!!",
"!!!!  !!!!",
"!!!!  !!!!",
"!!!!  !!!!",
"!!!!  !!!!",
"!!!!  !!!!",
"!!!!  !!!!",
"!!!!  !!!!"
};
