/* XPM */
static char * pixmap_play[] = {
/* width height num_colors chars_per_pixel */
"16 18 2 1",
/* colors */
"  c None",
"! c #000000",
/* pixels */
"!!              ",
"!!!!            ",
"!!!!!           ",
"!!!!!!!         ",
"!!!!!!!!!       ",
"!!!!!!!!!!!     ",
"!!!!!!!!!!!!!   ",
"!!!!!!!!!!!!!!! ",
"!!!!!!!!!!!!!!!!",
"!!!!!!!!!!!!!!!!",
"!!!!!!!!!!!!!!! ",
"!!!!!!!!!!!!!   ",
"!!!!!!!!!!!     ",
"!!!!!!!!!       ",
"!!!!!!!         ",
"!!!!!           ",
"!!!!            ",
"!!              "
};
