/* XPM */
static char * pixmap_next[] = {
/* width height num_colors chars_per_pixel */
"14 18 2 1",
/* colors */
"  c None",
"! c #000000",
/* pixels */
"!!         !!!",
"!!!!       !!!",
"!!!!!      !!!",
"!!!!!!     !!!",
"!!!!!!!    !!!",
"!!!!!!!!!  !!!",
"!!!!!!!!!! !!!",
"!!!!!!!!!!!!!!",
"!!!!!!!!!!!!!!",
"!!!!!!!!!!!!!!",
"!!!!!!!!!!!!!!",
"!!!!!!!!!! !!!",
"!!!!!!!!!  !!!",
"!!!!!!!    !!!",
"!!!!!!     !!!",
"!!!!!      !!!",
"!!!        !!!",
"!!         !!!"
};
